<svg xmlns="http://www.w3.org/2000/svg" version="1.1" xmlns:xlink="http://www.w3.org/1999/xlink" width="472.43" height="472.75"><svg id="SvgjsSvg1032" data-name="Layer 1" xmlns="http://www.w3.org/2000/svg" viewBox="0 0 472.43 472.75">
  <defs>
    <style>
      .cls-1 {
        fill: #c09a6d;
      }

      .cls-2 {
        fill: #fff;
      }

      .cls-3 {
        fill: #142738;
      }

      .cls-4 {
        fill: #328741;
      }

      .cls-5 {
        fill: #1e1e1e;
      }

      .cls-6 {
        fill: #f6a63c;
      }

      .cls-7 {
        fill: #e71e25;
      }
    </style>
  </defs>
  <path class="cls-4" d="M175.19,0c7.38.16,11.52,1.5,15.52,7.7,10.05,15.57,20.68,21.74,22.35,41.13,17.09-6.18,22.84-6.83,40.65-7.29-1.07,15.78-.51,34.93-.41,50.98-5.28-1.39-10.17-2.27-15.55-3.26-3.01,3.25-5.92,7.05-10.04,8.46-4.29.47-8.14-2.79-11.91-5.23-10.09-3.97-13.76-1.21-22.71-4.04-.68-.22-1.79-4.54-2.16-5.74-7.13-4.13-21.62,3.52-25.17-7.99,1.66-10.83,12.14-8.71,21.01-8.86,14.75-15.49,30.7-16.19,7.45-39.11-20.93,24.16-32.26-3.01-19.02-26.74Z"></path>
  <path class="cls-5" d="M351.44,263.18c1.44-.1,2.89-.17,4.35-.2,17.8-.35,32.51-.02,46.14,13.28,13.11,13.17,18.16,30.24,18.75,48.34,1.99,62.24-75.13,96.14-119.19,51.8-17.2-17.3-20.02-31.98-20.1-55.88.22-11.07,2.15-12.56,11.24-19.11,8.17-5.89,16.22-11.5,24.14-17.73,1.91,5.64,2.49,6.96,5.76,11.91-15.5,17.24-19.96,37.61-4.26,56.61,22.44,27.16,70.49,15.21,72.76-21.75,1.97-32.33-15.75-44.18-45.7-46.33-3.38-5.89-7.51-9.69-5.27-16.43,2.81-3.03,7.25-3.55,11.38-4.52Z"></path>
  <path class="cls-4" d="M243.67,100.5c5.24,0,7.14.83,11.13,4.43,21.72,19.55,62.72,72.11,65.41,100.28-28.57,26.65-39.03,48.96-55.43,84.31-4.87,9-9.56,15.28-16.67,22.54.3-8.33-1.32-32.6.89-38.39,9.88-26.66,28.88-50.4,27.03-80.43-.8-12.98-7.66-26.24-12.16-38.05-4.57-11.98-23.24-40.14-23.08-51.92l2.88-2.77Z"></path>
  <path class="cls-4" d="M324.05,136.43c-8.49-1.39-36.69,2.74-38.19-6.51.47-.44,1.03-.96,1.69-1.56,32.25-.12,81.3-1.1,111.47-.06,10.54,5.21-12.42,56.48-16.52,65.09-1.24,2.58-4.7,7.88-7.7,8.57-8.5,1.66-41.15,1.04-47.7-.76l-1.32-1.68.33-2.41c2.74-1.6,3.16-1.81,6.29-2.45,1.83-4.13-.41-13.14-5.3-14.6-4.4-1.32-5.12-.52-8.12-4.19l-.19-2.52c4.53-2.88,6.11.69,9.34-2.73-.4-4.03-.84-8.06-1.33-12.08-5.52-.08-18.41.68-21.49-4.32,3.05-4.42,13.99-3.25,18.93-3.12l-.19-14.67Z"></path>
  <path class="cls-2" d="M330.4,135.66c3.51.03,22.27.59,24.67.14,4.7.23,5.79-.61,8.47,2.2,1.71,5.07-.08,8.1-1.95,13.3l-2.37.98c-2.19-.24-5.43-.18-7.73-.2-4.35-.7-12.75-.5-17.5-.51-1.6-5.81-2.53-9.98-3.59-15.91Z"></path>
  <path class="cls-2" d="M372.65,137.89c4.07-2.35,16.27-1.39,21.53-1.21l-3.85,15.38-19.55.07c.4-2.69,1.95-12.11,1.87-14.25Z"></path>
  <path class="cls-2" d="M358.18,158.02c1.72,3.63-.28,9.72-1.2,13.83-6.23.25-12.85.19-19.15.23-1.76-5.6-2.21-8.46-3.08-14.27,8.42.35,15.04.39,23.43.2Z"></path>
  <path class="cls-4" d="M285.49,152.08c2.3.02,5.54-.04,7.73.2-.8,2.14-1.69,3.66-1.05,5.74-8.39.18-15.01.15-23.43-.2.95-.8.89-.88,1.49-1.98l-.78-1.03.51.91-.39,1.06-2.04-2.87.1-.24,1.14-.33.3.53c1.87-1.25,13.44-1.6,16.41-1.78Z"></path>
  <path class="cls-2" d="M368.25,158.99l19.27-.27c-1.62,4-3.1,8.51-4.51,12.62-3.15.84-13.15.62-16.95.63l2.19-12.98Z"></path>
  <path class="cls-2" d="M363.7,181.75l16.59-.02-6.11,14.3c-2.06.53-10.29.27-12.9.25,1.06-4.86,1.71-9.62,2.42-14.53Z"></path>
  <path class="cls-2" d="M339.52,181.61c4.42.01,11.95-.93,14.88,1.57,1.64,3.18.03,7.21-.89,10.82-1.71,2.07-2.31,1.7-5.35,2.66-7.5-1.28-8.16-8.85-8.64-15.05Z"></path>
  <path class="cls-3" d="M157.37,459.96l.3-.03c17.93-1.72,36.88.55,54.91.52,22.15-.03,179.69-3.97,188.3,3.55,1.14.99,1.05,1.32,1.16,2.75-3.78,4.63-13.62,5.44-19.3,5.85-21.63-.02-43.99-.68-65.43-.5-43.17.77-86.36.86-129.54.27-9.27-.14-47.17,1.78-51.48-6.5l.74-1.86c3.7-3.16,15.06-3.58,20.34-4.04Z"></path>
  <path class="cls-4" d="M323.43,213.76c35.37-4.25,70.17,16.06,83.86,48.94-33.11-8.85-46.54-14.35-78.76,1.05-13.3,6.82-41.79,43.04-56.68,35.8-.83-2.95.07-6.13,1.4-8.81,13.85-27.89,24.16-57.73,50.17-76.97Z"></path>
  <path class="cls-5" d="M352.03,297.52c13.47,3.44,16.45,5.35,24.94,16.14,1.22,13.7,1.42,26.11-10.77,35.43-5.27,4.04-11.93,5.79-18.49,4.86-10.69-1.52-17.24-7.65-23.47-15.71-2.24-6.93-.43-21.49.29-29.08,12.31,10.12,8.28,16.52,19.27,26.95,1.98,1.58,5.34,2.79,7.84,2.19,23.22-5.64,2.74-29.79.45-40.42l-.07-.35Z"></path>
  <path class="cls-4" d="M329.83,271.45c5.12,2.71,28.22,51.75,25.27,59l-3.11.94c-2.67-.67-4.1-1.2-6.66-2.21-4.58-8.02-21.12-42.56-22.34-50.25.95-3.09,4.29-5.33,6.84-7.48Z"></path>
  <path class="cls-4" d="M259.64,44.52c17.84,6.08,12.01,29.67,8.41,43.7-2.39,1.17-6.22,3.67-8.23,2.99-1.18-14.16,1.06-30.82-.18-46.69Z"></path>
  <path class="cls-5" d="M165.75,75.23s-1.61-12.07,21.01-9.38l4.16,16.85s-3.58-2.29-13.18-1.23c0,0-8.83,1.07-11.98-6.24Z"></path>
  <path class="cls-3" d="M44.8,397.4c25.85-1.74,55.21-.27,81.22.11,23.8.35,47.76.21,71.58.2l135.09-.15c35.5-.29,71.06-1.36,106.71-.48,6.64.17,25.44-.23,31.24,3.21,1.75,1.04,1.65,2.96,1.79,4.73l-1.11,1.28c-7.77,2.88-28.03,2.65-37.31,2.87l-300.54.07-71.67-.14c-16.24-.01-33.9.58-49.91-1.75-5.25-.77-5.32-1.13-7.73-4.63,8.18-6.36,29.84-5.08,40.64-5.31Z"></path>
  <path class="cls-3" d="M159.58,430.34c60.44-.52,120.88-.36,181.32.49,16.77.26,77.56-1.66,89.12,4.8l.21,1.45c-8.03,7.32-27.9,5.86-38.18,5.89l-45.19.16c-61.69.35-123.39.19-185.08-.49-13.12-.1-82.58,2.53-86.52-6.31l1.07-1.63c11.88-6.21,65.13-3.92,83.25-4.36Z"></path>
  <g>
    <path class="cls-1" d="M175.85,204.37c13.04-8.83,25.82-18.04,38.33-27.6l13.13,19.35c-14.06,12.26-29.12,22.76-43.07,34.65-.48,5.96.17,21.68-.44,25.48l-.03,15.21c-.09,23.89-.32,47.77-.71,71.66-.08,7.55-.06,15.21-.23,22.75-.38,16.59,2.14,31.38-20.12,31.31-2.47-.02-4.94-.07-7.41-.16l-70.41-.91c-10.64-.13-21.72.1-32.29-.78-13.25-1.11-10.21-18.35-10.04-27.64.19-9.37.31-18.74.36-28.1l1.3-110.14c-15.05-11.52-29.79-23.42-44.23-35.69,3.36-5.57,9.27-13.54,13.13-19.08,11.17,8.52,26.48,19.5,36.79,28.44,1.28-8.76,2.71-17.49,4.29-26.2,38.6.15,77.21.52,115.81,1.12,2.09,8.51,3.94,17.75,5.84,26.35Z"></path>
    <path class="cls-2" d="M50.07,210.38c9.99.37,20.35.41,30.38.41,31.71,0,63.7,1.18,95.37,1.04,2.05,4.62,7.15,14.73,8.44,18.94-3.89-.17-8.01-.27-11.83-.74-13.2.76-30.32-.32-43.86-.26-10.36-.19-20.72-.31-31.08-.36-11.67-.44-32.97.24-43.51-.72-3.56.16-6.49.31-10.07.23,1.63-6.25,3.68-12.44,6.15-18.54Z"></path>
    <path class="cls-6" d="M97.49,229.27c10.36.03,20.72.15,31.08.36l7.98.5c-.17,17.19.06,36.94-.92,53.91-3.54-2.84-9.41-6.64-13.29-9.32l-6.45,6.37c-1.98-1.95-4.21-4.63-6.08-6.75l-5.99,5.77-4.73-5.81c-2.68,2.46-5.38,4.88-8.14,7.26-.1-9.82-.52-42.46.52-51.33,1.38-1.07,4.12-.89,6.02-.95Z"></path>
    <circle class="cls-7" cx="112.99" cy="251.42" r="2.36"></circle>
    <path class="cls-2" d="M151.54,367.34c-1.18,2.1-1.53,2.97-3.45,4.39-3.08.3-14.79.56-17.5.09-7.46-1.28-44.33,2.5-47.15-5.02.17-.34.18-.42.5-.73,6.01-5.79,55.93-2.32,66-.95l1.6,2.22Z"></path>
    <path class="cls-2" d="M87.46,344.28c18.27-.06,42.97-.37,61.49,1.61,1.49.16,1.98,1.5,2.38,2.76-.33,1.91-1.27,2.66-2.59,4.08-15.7.62-31.82-.24-47.56-.35-4.54-.03-14.55.29-16.68-3.94.59-2.31,1.06-2.18,2.97-4.16Z"></path>
    <path class="cls-2" d="M87.47,325.88c18.27-.06,42.97-.37,61.49,1.61,1.49.16,1.98,1.5,2.38,2.76-.33,1.91-1.27,2.66-2.59,4.08-15.7.62-31.82-.24-47.56-.35-4.54-.03-14.55.29-16.68-3.94.59-2.31,1.06-2.18,2.97-4.16Z"></path>
  </g>
</svg><style>@media (prefers-color-scheme: light) { :root { filter: none; } }
@media (prefers-color-scheme: dark) { :root { filter: none; } }
</style></svg>