
<svg width="247" height="433" viewBox="0 0 247 433" fill="none" xmlns="http://www.w3.org/2000/svg">
<path d="M66.3809 114.907C89.8124 111.578 114.322 111.112 137.933 113.508C139.801 113.697 142.176 114.018 143.991 114.436L143.988 159.576C143.936 168.183 143.408 179.994 144.033 188.351C144.213 189.193 143.996 188.955 144.486 189.417C149.273 187.613 157.278 183.468 161.196 180.196C176.636 167.292 184.006 154.798 185.948 134.569C186.218 132.291 186.081 129.708 186.621 127.479C186.836 126.584 187.141 126.575 187.821 126.216C189.786 126.382 201.433 124.033 204.161 123.55L204.913 123.53C206.256 125.032 205.276 130.411 205.171 132.572C202.713 155.717 192.643 176.935 177.241 194.255C175.476 196.241 172.278 200.236 170.483 201.753C170.191 203.74 170.456 205.961 170.053 207.835C169.026 212.617 167.491 217.331 166.088 222.019L159.943 242.719L155.151 258.874C154.073 262.504 152.981 266.466 151.491 269.941C150.096 273.194 147.303 276.146 145.503 279.036C143.721 279.756 142.041 281.429 141.023 283.029C140.106 283.719 137.468 285.816 136.621 286.314C132.482 288.359 129.459 290.041 124.849 291.434C113.007 295.011 97.2931 294.489 85.5366 290.866C82.5531 289.946 79.5491 288.079 76.7849 286.731C75.3916 285.744 73.9929 284.764 72.5886 283.791C72.0646 282.846 69.0966 280.439 68.1189 279.624C67.8599 279.041 66.5641 277.611 66.0881 277.099C61.0399 271.669 59.8124 266.344 57.7361 259.331L52.9636 243.149L46.7266 222.216C44.2529 213.848 42.3824 209.016 42.4824 200.142C27.4991 184.477 15.6681 165.823 11.0469 144.382C10.0841 139.915 9.82613 136.298 9.50188 131.776C9.37663 129.886 8.67589 125.749 10.1274 124.289C10.6489 123.765 11.8541 123.841 12.5809 123.874C13.1666 124.303 24.8136 126.158 26.0456 126.096C28.2096 127.403 27.8256 132.096 28.1406 134.601C28.5689 137.674 29.0389 141.692 29.7069 144.619C32.9551 158.851 40.3659 171.149 52.1646 179.91C55.6984 182.534 61.9844 186.563 66.0566 187.923C66.5564 186.275 66.4256 176.402 66.4341 173.919C66.5159 161.91 66.4924 149.9 66.3636 137.892L66.3326 122.073C66.3354 119.744 66.4819 117.183 66.3809 114.907Z" fill="#FEDB17"/>
<path d="M66.3809 114.907C89.8124 111.578 114.322 111.112 137.933 113.508C139.801 113.697 142.176 114.018 143.991 114.436L143.988 159.576C143.936 168.183 143.408 179.994 144.033 188.351C144.213 189.193 143.996 188.955 144.486 189.417C142.148 189.954 142.828 190.834 139.748 190.575C139.581 190.861 138.141 195.496 137.888 196.181C134.573 205.139 127.652 212.764 118.754 216.401C111.141 219.516 102.595 219.441 95.0391 216.19C84.2211 211.523 77.5524 201.989 74.6189 190.868C74.5836 190.798 74.5484 190.728 74.5131 190.658C72.5206 190.856 67.5171 189.218 66.0566 187.923C66.5564 186.275 66.4256 176.402 66.4341 173.919C66.5159 161.91 66.4924 149.9 66.3636 137.892L66.3326 122.073C66.3354 119.744 66.4819 117.183 66.3809 114.907Z" fill="#E41C22"/>
<path d="M66.3809 114.907C89.8124 111.578 114.322 111.112 137.933 113.508C139.801 113.697 142.176 114.018 143.991 114.436L143.988 159.576C143.936 168.183 143.408 179.994 144.033 188.351C144.213 189.193 143.996 188.955 144.486 189.417C142.148 189.954 142.828 190.834 139.748 190.575C139.838 186.163 140.663 181.074 140.203 176.402C139.816 172.456 138.778 168.711 137.973 164.823C136.441 163.255 134.566 159.698 133.178 157.715C119.555 138.234 90.8169 139.911 79.2429 160.55C78.6134 161.673 77.1454 164.226 76.3261 165.111C75.7906 168.115 74.8789 171.206 74.3531 174.056C73.5414 178.456 73.8196 186.106 74.5131 190.658C72.5206 190.856 67.5171 189.218 66.0566 187.923C66.5564 186.275 66.4256 176.402 66.4341 173.919C66.5159 161.91 66.4924 149.9 66.3636 137.892L66.3326 122.073C66.3354 119.744 66.4819 117.183 66.3809 114.907Z" fill="#333C41"/>
<path d="M76.3262 165.111C77.4664 144.459 80.8009 128.835 104.673 127.432C132.516 125.795 137.051 140.716 137.973 164.823C136.441 163.255 134.566 159.698 133.178 157.715C119.555 138.234 90.8169 139.911 79.2429 160.55C78.6134 161.673 77.1454 164.226 76.3262 165.111Z" fill="#F14A29"/>
<path d="M104.919 149.305C115.967 147.899 124.422 155.575 126.737 166.008C128.145 172.42 126.926 179.129 123.352 184.636C120.363 189.317 115.616 192.598 110.181 193.739C104.852 193.987 101.311 193.621 96.7711 190.636C92.0671 187.543 88.5336 181.843 87.5819 176.374C86.6011 170.738 87.4724 162.688 91.0046 157.976C94.9404 152.725 98.6243 150.459 104.919 149.305Z" fill="#F14A29"/>
<path d="M42.4825 200.142C44.2952 201.308 50.3365 207.348 52.6432 209.269C55.2245 211.388 57.8642 213.435 60.5592 215.408C61.986 216.472 64.49 218.211 65.6315 219.394C66.587 223.844 67.298 229.154 68.015 233.696L71.8515 257.911C72.4797 261.846 73.3812 268.791 74.3562 272.384C83.5005 281.259 96.1695 283.169 109.172 283.234C117.055 283.271 135.358 280.686 139.918 271.954C140.758 270.341 141.996 260.651 142.373 258.266L146.426 232.881C147.048 228.959 147.758 223.179 148.613 219.466C152.028 216.527 156.423 213.457 160.031 210.519C162.313 208.661 168.448 202.898 170.483 201.753C170.191 203.74 170.456 205.961 170.053 207.835C169.026 212.617 167.491 217.331 166.088 222.019L159.943 242.719L155.151 258.874C154.073 262.504 152.981 266.466 151.491 269.941C150.096 273.194 147.303 276.146 145.503 279.036C143.721 279.756 142.041 281.429 141.023 283.029C140.106 283.719 137.468 285.816 136.621 286.314C132.482 288.359 129.459 290.041 124.849 291.434C113.007 295.011 97.2932 294.489 85.5367 290.866C82.5532 289.946 79.5492 288.079 76.785 286.731C75.3917 285.744 73.993 284.764 72.5887 283.791C72.0647 282.846 69.0967 280.439 68.119 279.624C67.86 279.041 66.5642 277.611 66.0882 277.099C61.04 271.669 59.8125 266.344 57.7362 259.331L52.9637 243.149L46.7267 222.216C44.253 213.848 42.3825 209.016 42.4825 200.142Z" fill="#623913"/>
<path d="M204.161 123.55L204.913 123.53C206.256 125.032 205.276 130.411 205.171 132.572L205.051 131.774C202.913 131.261 189.381 134.556 185.948 134.569C186.218 132.291 186.081 129.708 186.621 127.479C186.836 126.584 187.141 126.575 187.821 126.216C189.786 126.382 201.433 124.033 204.161 123.55Z" fill="#F48B2A"/>
<path d="M9.50188 131.776C9.37663 129.886 8.67589 125.749 10.1274 124.289C10.6489 123.765 11.8541 123.841 12.5809 123.874C13.1666 124.303 24.8136 126.158 26.0456 126.096C28.2096 127.403 27.8256 132.096 28.1406 134.601C26.5246 134.548 22.9374 133.844 21.1774 133.549C17.2999 132.867 13.4069 132.276 9.50188 131.776Z" fill="#F48B2A"/>
<path d="M145.503 279.036L145.791 279.476C170.078 289.529 175.783 326.034 168.931 348.624C168.078 351.431 166.863 354.479 166.386 357.326C165.801 360.464 165.976 367.311 165.973 370.826L166.013 404.306C165.971 411.324 167.096 420.344 162.338 426.046C159.891 428.981 155.161 432.191 151.263 432.381C146.006 432.639 140.593 432.541 135.316 432.539L105.421 432.526L78.7707 432.524C74.184 432.521 66.8739 432.731 62.6217 432.086C59.7369 431.629 57.0362 430.379 54.8227 428.471C47.1964 421.959 48.8024 415.871 48.5989 407.056C48.3294 396.341 48.2379 385.621 48.3242 374.904C48.3142 369.361 48.5189 362.139 48.0964 356.769C47.6997 355.549 47.2179 354.359 46.7962 353.129C40.0324 333.366 41.4182 308.221 53.9629 291.036C57.1672 286.646 62.6655 281.644 67.7805 279.856L68.1189 279.624C69.0967 280.439 72.0647 282.846 72.5887 283.791C73.9929 284.764 75.3917 285.744 76.7849 286.731C79.5492 288.079 82.5532 289.946 85.5367 290.866C97.2932 294.489 113.007 295.011 124.849 291.434C129.459 290.041 132.482 288.359 136.621 286.314C137.468 285.816 140.106 283.719 141.023 283.029C142.041 281.429 143.721 279.756 145.503 279.036Z" fill="#312E2E"/>
<path d="M141.023 283.029C141.141 284.514 141.166 286.124 141.126 287.614C140.873 296.519 141.491 305.696 141.148 314.556C118.527 314.591 95.1905 314.861 72.5832 314.551C72.3597 304.614 72.5275 293.781 72.5887 283.791C73.993 284.764 75.3917 285.744 76.7849 286.731C79.5492 288.079 82.5532 289.946 85.5367 290.866C97.2932 294.489 113.007 295.011 124.849 291.434C129.459 290.041 132.482 288.359 136.621 286.314C137.468 285.816 140.106 283.719 141.023 283.029Z" fill="url(#paint0_linear_0_1)"/>
<path d="M76.7849 286.731C79.5492 288.079 82.5532 289.946 85.5367 290.866C97.2932 294.489 113.007 295.011 124.849 291.434C129.459 290.041 132.482 288.359 136.621 286.314C137.126 290.396 136.706 298.759 136.776 303.249L76.7744 303.239L76.7849 286.731Z" fill="#333C41"/>
<path d="M145.503 279.036L145.791 279.476C170.078 289.529 175.783 326.034 168.931 348.624C168.078 351.431 166.863 354.479 166.386 357.326C165.451 355.331 165.806 352.846 165.808 350.611L165.823 338.891C165.843 329.549 166.228 321.984 157.053 316.696C152.978 314.346 150.116 314.871 145.651 314.559C144.188 314.526 142.621 314.556 141.148 314.556C141.491 305.696 140.873 296.519 141.126 287.614C141.166 286.124 141.141 284.514 141.023 283.029C142.041 281.429 143.721 279.756 145.503 279.036Z" fill="#CF181C"/>
<path d="M145.503 279.036L145.791 279.476C145.538 286.086 145.608 293.099 145.606 299.726C145.606 304.444 145.471 309.891 145.651 314.559C144.188 314.526 142.621 314.556 141.148 314.556C141.491 305.696 140.873 296.519 141.126 287.614C141.166 286.124 141.141 284.514 141.023 283.029C142.041 281.429 143.721 279.756 145.503 279.036Z" fill="#333C41"/>
<path d="M68.1189 279.624C69.0967 280.439 72.0647 282.846 72.5887 283.791C72.5274 293.781 72.3597 304.614 72.5832 314.551C71.1715 314.496 69.5384 314.534 68.1074 314.536C61.9439 314.836 57.5224 315.304 52.9732 320.201C47.9514 325.609 48.5612 332.406 48.5664 339.346L48.6012 351.441C48.6129 352.951 48.8194 355.561 48.0964 356.769C47.6997 355.549 47.2179 354.359 46.7962 353.129C40.0324 333.366 41.4182 308.221 53.9629 291.036C57.1672 286.646 62.6655 281.644 67.7805 279.856L68.1189 279.624Z" fill="#CF181C"/>
<path d="M68.1189 279.624C69.0966 280.439 72.0646 282.846 72.5886 283.791C72.5274 293.781 72.3596 304.614 72.5831 314.551C71.1714 314.496 69.5384 314.534 68.1074 314.536C67.7326 302.991 68.2259 291.404 67.7804 279.856L68.1189 279.624Z" fill="#333C41"/>
<path d="M91.1204 61.4283C92.9322 61.1063 96.3832 59.3473 99.2764 58.826C104.337 57.8505 110.003 57.8863 115.085 58.693C117.082 59.01 119.114 60.0965 121.304 60.366C125.537 61.9515 128.309 65.726 129.947 69.7408C131.019 74.0195 131.035 79.9458 129.118 84.0168C129.759 84.298 129.721 84.2508 130.331 84.353C135.631 85.2403 141.161 87.4788 145.883 89.9528C148.003 91.0635 150.903 92.8925 153.038 93.6435C158.486 94.4265 163.506 95.9008 168.568 96.6863L167.696 98.096C166.871 99.4248 167.338 101.561 167.253 103.144C165.496 102.756 162.326 101.464 160.858 102.014C162.531 104.607 170.098 116.746 169.681 119.395C168.651 119.969 161.453 117.858 159.766 117.412C154.696 116.071 149.461 115.503 144.421 114.384L143.991 114.436C142.176 114.018 139.801 113.697 137.933 113.508C114.322 111.112 89.8124 111.578 66.3809 114.907C62.0347 115.567 57.2562 116.777 52.9369 117.728C51.0572 118.141 46.8869 119.524 45.3137 119.606L45.0339 119.084C45.0662 115.181 51.5454 105.374 53.8037 102.07C52.1314 101.371 49.1417 102.583 47.3652 103.177C47.2727 101.865 47.2524 100.397 47.2082 99.0698C46.5189 98.3898 45.5384 97.5825 45.5319 96.6587C48.7797 96.2812 57.5022 94.4245 61.2384 93.7193C63.7894 93.1098 68.3709 89.8293 71.2294 88.507C76.1647 86.224 80.4682 85.4895 85.3664 83.9638C83.6787 79.398 83.7827 74.957 84.5729 70.198C85.7617 67.027 86.6042 65.8743 89.1487 63.5943C90.0072 62.825 90.5972 62.4415 91.1204 61.4283Z" fill="#CF181C"/>
<path d="M91.1205 61.4283C92.9322 61.1063 96.3832 59.3473 99.2765 58.826C104.337 57.8505 110.003 57.8863 115.085 58.693C117.082 59.01 119.114 60.0965 121.304 60.366C125.537 61.9515 128.309 65.726 129.947 69.7408C131.019 74.0195 131.035 79.9458 129.118 84.0168C129.095 84.0998 129.072 84.183 129.048 84.266C126.461 90.0027 123.426 94.0635 117.689 96.8915C111.881 99.7543 105.358 99.936 99.3297 97.9542C95.3642 96.6505 90.2642 92.5725 87.9225 89.1875C87.3772 88.3995 85.8845 85.068 85.3665 83.9638C83.6787 79.398 83.7827 74.957 84.573 70.198C85.7617 67.027 86.6042 65.8743 89.1487 63.5943C90.0072 62.825 90.5972 62.4415 91.1205 61.4283Z" fill="#E41C22"/>
<path d="M91.1204 61.4283C92.9321 61.1063 96.3831 59.3473 99.2764 58.826C104.337 57.8505 110.003 57.8863 115.085 58.693C117.082 59.01 119.114 60.0965 121.304 60.366C125.537 61.9515 128.309 65.726 129.947 69.7408L129.776 69.9023C129.313 70.3423 128.914 70.7803 128.513 71.2765C126.19 74.1553 122.819 75.0895 119.273 75.4535C113.62 76.034 91.9401 76.5942 87.8826 73.25C86.7759 72.3378 85.8946 70.5982 84.5729 70.198C85.7616 67.027 86.6041 65.8743 89.1486 63.5943C90.0071 62.825 90.5971 62.4415 91.1204 61.4283Z" fill="#F14A29"/>
<path d="M105.058 60.5995L105.383 60.5768C111.39 60.2033 120.363 61.4647 124.689 65.8985C132.284 73.6815 112.101 73.0785 109.238 73.096C105.135 73.1153 101.024 73.1755 96.9237 72.9455C92.8682 72.7178 90.6782 71.9623 87.4602 69.505C91.1712 62.5653 97.7757 61.095 105.058 60.5995Z" fill="#FAFAFA"/>
<path d="M86.2924 75.3648C94.2096 78.4833 100.743 78.1638 109.159 78.25C116.368 78.3235 121.522 77.926 128.325 75.4225C127.614 79.6633 127.351 82.4385 125.282 86.2465C124.011 87.9977 122.196 90.9977 119.828 91.073C116.036 90.9357 111.557 91.0485 107.821 90.6377C103.409 90.1525 94.8819 92.7468 91.7629 89.5395C88.2269 85.9038 86.3469 80.2523 86.2924 75.3648Z" fill="url(#paint1_linear_0_1)"/>
<path d="M45.5319 96.6587C48.7796 96.2812 57.5021 94.4245 61.2384 93.7193C60.6999 95.3995 55.4881 100.06 53.8036 102.07C52.1314 101.371 49.1416 102.583 47.3651 103.177C47.2726 101.865 47.2524 100.397 47.2081 99.0698C46.5189 98.3898 45.5384 97.5825 45.5319 96.6587Z" fill="#515257"/>
<path d="M153.038 93.6435C158.486 94.4265 163.506 95.9008 168.568 96.6863L167.696 98.096C166.871 99.4248 167.338 101.561 167.253 103.144C165.496 102.756 162.326 101.464 160.858 102.014C159.071 100.026 153.601 95.3955 153.038 93.6435Z" fill="#515257"/>
<path d="M96.3097 25.0088C96.2729 20.731 95.7079 12.295 96.6889 8.42725C99.0744 -0.977249 114.399 -0.830748 116.039 9.345C116.751 13.9738 116.181 20.2038 116.35 24.9858C122.708 32.921 121.503 36.1228 121.577 46.1253C121.612 50.796 121.572 55.6663 121.304 60.366C119.114 60.0965 117.082 59.01 115.085 58.693C110.003 57.8863 104.337 57.8505 99.2764 58.826C96.3832 59.3473 92.9322 61.1063 91.1204 61.4283C91.9142 52.5128 89.8979 39.8335 92.3037 31.1845C92.7087 29.7283 95.2234 26.745 96.1719 25.232L96.3097 25.0088Z" fill="#CF181C"/>
<path d="M96.3097 25.0088C96.2729 20.731 95.7079 12.295 96.6889 8.42725C99.0744 -0.977249 114.399 -0.830748 116.039 9.345C116.751 13.9738 116.181 20.2038 116.35 24.9858C115.325 24.4118 114.281 23.8705 113.222 23.3633C108.864 21.3158 104.793 21.0723 100.344 22.927C98.8962 23.5305 97.8979 24.502 96.3097 25.0088Z" fill="#0F2027"/>
<path d="M180.591 97.344C181.538 97.025 182.268 96.777 183.183 96.3812C188.806 97.7612 201.131 99.7835 205.208 102.893C206.108 103.06 208.021 103.528 208.896 103.6C214.066 104.027 216.868 109.802 212.063 113.029C209.801 114.549 205.648 113.491 202.981 112.666C202.131 113.693 201.403 121.377 201.946 122.964C202.733 123.438 203.253 123.43 204.161 123.55C201.433 124.033 189.786 126.382 187.821 126.216C190.268 115.889 177.483 118.779 174.806 113.864C172.861 110.292 176.773 109.733 177.511 107.192C178.576 103.835 179.408 100.703 180.591 97.344Z" fill="#FEC58B"/>
<path d="M205.208 102.893C206.108 103.06 208.021 103.528 208.896 103.6C214.066 104.027 216.868 109.802 212.063 113.029C209.801 114.549 205.648 113.491 202.981 112.666C204.248 110.211 205.281 105.737 205.208 102.893Z" fill="#333C41"/>
<path d="M9.03914 102.9C11.6426 100.675 15.5516 99.9455 18.8246 99.1775C22.8056 98.2435 26.8811 97.0573 30.9294 96.59C31.7091 96.5 33.0711 97.0467 33.8289 97.3267C34.4369 99.1995 36.1676 106.386 37.0571 107.219C36.9551 107.611 36.7589 108.265 37.1576 108.555C39.7176 110.414 41.0936 113.581 37.5644 115.45C30.8354 119.012 27.0559 116.359 26.0456 126.096C24.8136 126.158 13.1666 124.303 12.5809 123.874C13.1416 121.374 13.0896 114.602 11.2269 112.553C9.69863 113.285 6.23564 113.806 4.42939 114.15C2.58739 113.355 0.609641 112.352 0.164391 110.206C-1.07411 104.237 4.96039 103.767 9.03914 102.9Z" fill="#FEC58B"/>
<path d="M4.42939 114.15C2.58739 113.356 0.609641 112.352 0.164391 110.206C-1.07411 104.237 4.96039 103.767 9.03914 102.9C9.07739 104.813 10.1541 111.18 11.2269 112.553C9.69863 113.285 6.23564 113.806 4.42939 114.15Z" fill="#333C41"/>
<path d="M33.8289 97.3267C35.5041 96.7125 37.8449 97.1028 39.3914 95.963C40.0676 93.3253 36.1381 91.687 34.0054 91.7557C31.8329 91.826 30.3889 92.322 28.3484 92.9192C22.9426 94.502 17.4386 95.7095 12.0044 97.1827C11.1491 97.4127 8.19587 98.369 7.48362 98.1502C6.90287 97.4957 6.90537 97.5587 6.78137 96.701C6.93787 96.4097 7.06137 96.0175 7.35687 95.9487C16.0194 93.9895 24.4469 90.9007 33.2564 89.5817C40.9396 88.4312 40.3359 95.3147 45.2171 96.5802L45.5319 96.6587C45.5384 97.5825 46.5189 98.3898 47.2081 99.0698C47.2524 100.397 47.2726 101.865 47.3651 103.177C41.8666 106.832 41.8424 105.18 37.0571 107.219C36.1676 106.386 34.4369 99.1995 33.8289 97.3267Z" fill="#333C41"/>
<path d="M168.568 96.6863C172.208 95.8065 172.833 92.7393 175.638 90.873C181.001 87.305 195.716 93.2718 202.011 94.5383C201.408 95.0525 201.171 96.0438 200.891 96.8328C196.178 95.5935 191.446 94.288 186.711 93.1238C181.363 91.809 177.286 90.0728 174.353 96.0765C176.331 96.4585 178.706 97.126 180.591 97.344C179.408 100.703 178.576 103.835 177.511 107.192C175.058 106.331 172.663 106.111 170.286 105.277C169.791 105.103 168.231 103.623 167.253 103.144C167.338 101.561 166.871 99.4248 167.696 98.096L168.568 96.6863Z" fill="#333C41"/>
<path d="M202.011 94.5383C203.691 94.983 206.936 95.4837 207.741 96.8547C207.693 97.6407 207.691 97.5855 207.293 98.273C206.541 98.421 202.323 97.1015 200.891 96.8328C201.171 96.0438 201.408 95.0525 202.011 94.5383Z" fill="#0F2027"/>
<path d="M226.926 7.6055C229.206 7.42825 232.308 7.79775 234.728 7.73125C237.973 7.64225 241.213 7.53675 244.456 7.414C245.446 7.3765 245.458 7.438 245.963 7.9455C244.386 8.34775 229.201 8.426 227.113 8.1325L226.926 7.6055Z" fill="#D24141" fill-opacity="0.360784"/>
<path d="M245.391 38.4615L246.291 38.732C246.768 39.2938 246.681 43.7768 246.814 45.2375C246.516 45.3405 246.266 45.3505 245.948 45.395C245.331 44.5138 245.473 39.99 245.391 38.4615Z" fill="#F46D74" fill-opacity="0.439216"/>
<path d="M244.368 19.3863L244.788 19.6525C245.228 20.5678 244.943 24.9238 244.843 26.1348L244.411 26.1483L244.116 25.856C244.023 24.1368 243.836 20.9155 244.368 19.3863Z" fill="#F46D74" fill-opacity="0.145098"/>
<path d="M246.103 0C247.053 0.871 245.993 3.9235 246.016 5.3525C245.358 3.74325 245.503 1.63625 246.103 0Z" fill="#F46D74" fill-opacity="0.12549"/>
<defs>
<linearGradient id="paint0_linear_0_1" x1="106.814" y1="314.286" x2="106.551" y2="284.199" gradientUnits="userSpaceOnUse">
<stop stop-color="#67696F"/>
<stop offset="1" stop-color="#787E82"/>
</linearGradient>
<linearGradient id="paint1_linear_0_1" x1="107.233" y1="90.914" x2="107.027" y2="75.7198" gradientUnits="userSpaceOnUse">
<stop stop-color="#EE4221"/>
<stop offset="1" stop-color="#FC702C"/>
</linearGradient>
</defs>
</svg>
